<svg version="1.2" xmlns="http://www.w3.org/2000/svg" viewBox="0 0 2250 2250" width="2250" height="2250">
	<style>
		.s0 { opacity: .99;fill: #e6d3af } 
	</style>
	<path id="Path 0" fill-rule="evenodd" class="s0" d="m1062 431.6c-5.22 0.18-20.53 0.82-34 1.41-13.48 0.59-33.95 1.74-45.5 2.55-11.55 0.81-24.6 1.93-29 2.48-4.4 0.56-13.63 2.12-20.5 3.47-6.88 1.35-18.8 4.29-26.5 6.55-7.7 2.25-19.17 6.14-25.5 8.64-6.33 2.51-16.45 6.89-22.5 9.74-6.05 2.85-15.95 8.03-22 11.52-6.05 3.48-16.4 9.96-23 14.39-6.6 4.43-17.61 12.58-24.47 18.1-6.85 5.53-17.43 14.82-23.5 20.66-6.06 5.83-15.08 15.21-20.03 20.82-4.95 5.62-13.5 16.22-19 23.56-5.5 7.33-12.9 17.99-16.45 23.67-3.54 5.69-9.93 17.09-14.19 25.34-4.27 8.25-10.28 21.3-13.37 29-3.08 7.7-7.11 18.95-8.94 25-1.83 6.05-4.48 16.17-5.89 22.5-1.4 6.33-3.24 16.22-4.08 22-0.84 5.77-2.19 19.05-3.01 29.5-0.82 10.45-2.07 28.22-2.78 39.5-0.83 13.3-1.28 44.54-1.29 89 0 43.99 0.46 76.37 1.29 90.5 0.71 12.1 1.96 30.77 2.77 41.5 0.82 10.72 2.17 24.22 3.02 30 0.84 5.78 2.9 16.58 4.56 24 1.67 7.42 5.42 20.7 8.34 29.5 2.91 8.8 8.09 22.3 11.5 30 3.41 7.7 8.93 18.95 12.27 25 3.34 6.05 8.75 15.28 12.04 20.5 3.28 5.22 9.64 14.45 14.14 20.5 4.5 6.05 12.26 15.72 17.24 21.5 4.99 5.78 14.19 15.45 20.45 21.5 6.26 6.05 16.11 14.88 21.88 19.63 5.77 4.75 15.45 12.11 21.5 16.35 6.05 4.25 15.84 10.6 21.75 14.12 5.91 3.52 16.04 9.04 22.5 12.28 6.46 3.23 16.02 7.69 21.25 9.9 5.23 2.22 14 5.59 19.5 7.5 5.5 1.91 14.95 4.86 21 6.56 6.05 1.7 16.63 4.21 23.5 5.58 6.88 1.36 18.58 3.24 26 4.17 10.85 1.35 26.42 1.81 79.27 2.3 36.18 0.33 96.25 0.32 133.5-0.04 53.88-0.51 70.29-0.97 80.23-2.27 6.88-0.9 18.35-2.8 25.5-4.24 7.15-1.43 19.08-4.37 26.5-6.54 7.42-2.17 19.8-6.43 27.5-9.48 7.7-3.05 20.97-9.06 29.5-13.36 8.53-4.3 21.13-11.34 28.01-15.64 6.88-4.3 17.68-11.7 24-16.44 6.32-4.74 17.11-13.55 23.99-19.58 6.88-6.03 16.86-15.65 22.18-21.38 5.33-5.73 12.87-14.25 16.76-18.92 3.89-4.67 10.61-13.45 14.93-19.5 4.32-6.05 11.23-16.63 15.36-23.5 4.13-6.88 9.76-17 12.52-22.5 2.75-5.5 6.82-14.28 9.04-19.5 2.23-5.22 6.12-15.58 8.66-23 2.54-7.42 5.94-18.9 7.55-25.5 1.62-6.6 3.85-17.63 4.96-24.5 1.12-6.88 2.68-21.72 3.48-33 0.81-11.28 2.04-31.3 2.74-44.5 0.75-14.33 1.27-49.18 1.27-86.5 0-37.32-0.52-72.17-1.27-86.5-0.7-13.2-1.93-33.23-2.74-44.5-0.8-11.28-2.36-26.13-3.48-33-1.11-6.88-3.34-17.9-4.96-24.5-1.61-6.6-5.01-18.08-7.55-25.5-2.53-7.42-6.62-18.23-9.09-24-2.46-5.78-7.65-16.58-11.53-24-3.88-7.42-10.21-18.45-14.05-24.5-3.84-6.05-11.39-16.85-16.77-24-5.38-7.15-14.26-17.95-19.73-24-5.47-6.05-14.18-15.02-19.36-19.94-5.18-4.91-13.25-12.12-17.92-16-4.67-3.89-13.22-10.52-19-14.73-5.78-4.21-16.58-11.34-24-15.85-7.42-4.51-20.25-11.49-28.5-15.5-8.25-4.01-21.08-9.54-28.5-12.29-7.42-2.75-18.45-6.38-24.5-8.08-6.05-1.69-15.28-3.96-20.5-5.04-5.22-1.07-14.22-2.64-20-3.47-5.78-0.83-20.62-2.21-33-3.07-12.37-0.85-31.28-2-42-2.55-10.72-0.55-42.22-1.16-70-1.36-27.78-0.2-54.78-0.21-60-0.02zm21.5 146.42c4.4-0.49 17.67-0.73 29.5-0.53 14.75 0.25 25.58 0.98 34.5 2.34 7.15 1.09 19.53 3.65 27.5 5.69 7.97 2.04 20.13 5.73 27 8.21 6.88 2.48 18.58 7.28 26 10.67 7.42 3.39 18.62 9.07 24.89 12.63 7.84 4.46 12.76 8.02 15.82 11.47 2.77 3.13 4.97 6.87 5.87 10 0.79 2.75 1.41 6.8 1.38 9-0.03 2.2-1.08 11.42-2.34 20.5-1.25 9.08-2.13 16.61-1.95 16.75 0.18 0.14 4.49-2.62 9.58-6.13 5.09-3.51 12.17-7.83 15.75-9.61 3.58-1.77 8.53-3.46 11-3.76 3.53-0.42 5.74 0.03 10.25 2.1 3.65 1.68 8.23 5.12 12.52 9.4 3.73 3.71 10.81 11.7 15.75 17.75 4.94 6.05 11.51 14.6 14.61 19 3.1 4.4 8.22 12.27 11.37 17.5 3.16 5.23 8.17 14.34 11.12 20.25 2.96 5.91 7.13 15.14 9.27 20.5 2.14 5.36 5.76 15.6 8.04 22.75 2.29 7.15 5.48 19.52 7.1 27.5 1.61 7.98 3.68 20.58 4.59 28 1.11 9.13 1.66 21.44 1.67 38 0.02 16.16-0.54 29.6-1.62 39.5-0.91 8.25-2.35 17.7-3.21 21-0.86 3.3-2.61 7.8-3.88 10-1.28 2.2-4.07 5.54-6.2 7.43-2.14 1.88-6.13 4.44-8.88 5.69-2.75 1.25-9.5 3.15-15 4.23-5.5 1.09-12.59 2.24-15.75 2.56-4.18 0.43-5.75 1-5.75 2.09 0 0.83 3.2 4.54 7.11 8.25 3.9 3.71 9.28 9.67 11.95 13.25 2.67 3.58 5.39 8.52 6.05 11 0.7 2.63 0.92 6.58 0.54 9.5-0.36 2.75-2.04 7.92-3.73 11.5-1.69 3.58-6.03 11-9.64 16.5-3.61 5.5-9.28 13.6-12.6 18-3.32 4.4-9.89 12.46-14.61 17.9-4.71 5.45-13.07 14.17-18.57 19.39-5.5 5.22-14.5 13.08-20 17.48-5.5 4.39-15.62 11.69-22.5 16.21-6.87 4.52-17 10.73-22.5 13.79-5.5 3.07-14.05 7.45-19 9.75-4.95 2.29-13.72 6.12-19.5 8.49-5.78 2.38-15.9 6.19-22.5 8.48-6.6 2.28-17.62 5.7-24.5 7.59-9.22 2.54-14.47 3.43-20 3.41-5.06-0.02-8.8-0.63-11.5-1.85-2.2-1-6.18-4.03-8.84-6.73-2.67-2.7-7.21-8.51-10.1-12.91-2.89-4.4-6.34-9.91-7.66-12.24-1.32-2.34-2.74-4.25-3.15-4.25-0.41-0.01-4.07 5.05-8.13 11.24-4.05 6.19-9.39 13.5-11.85 16.25-2.47 2.75-6.69 6.18-9.38 7.63-2.69 1.45-6.92 2.94-9.39 3.32-2.81 0.42-7.89 0.06-13.5-0.98-4.95-0.91-15.08-3.69-22.5-6.17-7.42-2.49-19.12-6.75-26-9.48-6.87-2.73-19.25-8.21-27.5-12.19-8.25-3.98-19.5-9.88-25-13.1-5.5-3.22-14.5-8.86-20-12.54-5.5-3.68-14.73-10.42-20.5-14.97-5.77-4.56-16.82-14.64-24.54-22.41-7.73-7.76-17.1-17.94-20.83-22.61-3.73-4.67-10.4-13.9-14.82-20.5-4.42-6.6-9.75-15.6-11.84-20-2.09-4.4-4.32-10.7-4.95-14-0.93-4.9-0.87-6.92 0.34-11 0.82-2.75 3.25-7.25 5.4-10 2.15-2.75 7.81-8.71 12.58-13.25 4.76-4.54 8.1-8.42 7.41-8.62-0.69-0.2-6.42-1.07-12.75-1.93-6.33-0.86-14.42-2.47-18-3.57-3.58-1.11-8.74-3.5-11.47-5.32-2.73-1.82-6.47-5.33-8.32-7.81-1.85-2.48-4.26-7.42-5.35-11-1.09-3.58-2.61-11.23-3.37-17-0.77-5.77-1.69-18.38-2.05-28-0.39-10.18-0.19-24.61 0.46-34.5 0.62-9.35 1.99-22.85 3.03-30 1.05-7.15 3.11-18.4 4.59-25 1.49-6.6 4.73-18.3 7.21-26 2.48-7.7 6.97-19.63 9.97-26.5 3-6.88 7.98-17 11.05-22.5 3.08-5.5 8.61-14.5 12.29-20 3.68-5.5 9.98-14.27 14-19.5 4.02-5.23 12.06-14.23 17.88-20.02 6.93-6.88 12.48-11.46 16.08-13.26 3.59-1.79 7.06-2.74 10-2.72 2.59 0.01 6.62 1.01 9.5 2.37 2.75 1.29 8.71 5.11 13.25 8.49 4.54 3.38 8.48 6.59 8.75 7.14 0.27 0.55 1.4 1 2.5 1 1.41 0 2-0.67 2-2.25-0.01-1.24-0.9-9-1.98-17.25-1.09-8.25-1.99-16.35-2.01-18-0.02-1.65 0.62-5.25 1.41-8 0.9-3.13 3.1-6.87 5.87-10 3.06-3.45 7.98-7.01 15.82-11.47 6.27-3.56 17.47-9.24 24.89-12.62 7.42-3.39 19.13-8.18 26-10.66 6.88-2.48 18.8-6.11 26.5-8.06 7.7-1.96 18.5-4.28 24-5.17 5.5-0.89 13.6-2.01 18-2.5zm-128 898.36c-2.75 0.67-7.02 2.18-9.5 3.36-2.48 1.18-6.27 3.86-8.43 5.95-2.16 2.1-4.74 5.61-5.73 7.81-1.21 2.71-1.8 6.43-1.8 11.5 0 5.06 0.59 8.8 1.8 11.5 0.98 2.2 3.38 5.8 5.33 8 1.95 2.2 6.42 5.86 9.94 8.13 3.51 2.28 12.91 7.89 20.89 12.49 7.98 4.59 16.37 10.16 18.65 12.37 2.35 2.28 4.67 5.74 5.37 8.01 0.67 2.2 0.96 5.58 0.64 7.5-0.32 1.92-1.5 4.74-2.62 6.25-1.12 1.51-3.73 3.6-5.79 4.65-2.06 1.04-6.23 2.2-9.25 2.58-3.17 0.4-8.25 0.19-12-0.49-3.58-0.65-8.08-1.98-10-2.95-1.92-0.98-5.04-3.3-6.92-5.16-1.87-1.86-4.45-5.63-5.73-8.38-1.27-2.75-2.88-7.37-3.58-10.27-1.21-5.02-1.42-5.27-4.52-5.25l-3.25 0.02c-0.02 19.93 0.31 22.16 2.24 26 1.66 3.31 3.71 5.37 7.76 7.78 3.02 1.81 7.75 4 10.5 4.88 3.12 1 10.08 1.78 18.5 2.07 10.18 0.34 15.16 0.07 20.25-1.14 3.71-0.87 8.89-2.66 11.5-3.96 2.61-1.3 6.77-4.58 9.25-7.29 2.8-3.07 5.07-6.8 6-9.88 0.83-2.73 1.47-7.43 1.43-10.46q-0.08-5.5-2.5-10.44c-1.35-2.74-4.66-6.86-7.43-9.24-2.75-2.37-13.77-9.31-24.5-15.44-10.73-6.12-21.08-12.36-23-13.85-1.92-1.5-4.35-4.48-5.38-6.63-1.28-2.65-1.76-5.4-1.5-8.57 0.28-3.48 1.14-5.48 3.38-7.87 1.65-1.76 4.46-3.83 6.25-4.58 1.79-0.76 6.51-1.38 10.5-1.37 3.99 0 8.83 0.43 10.75 0.94 1.92 0.52 5.71 2.43 8.42 4.25 3.29 2.21 5.93 5.11 7.99 8.8 1.69 3.03 3.81 8.42 4.71 12 1.54 6.11 1.81 6.5 4.51 6.5h2.87c0-24.75-0.09-25.28-2.75-28.83-1.71-2.28-5.12-4.81-9-6.68-3.44-1.65-9.4-3.67-13.25-4.48-3.85-0.81-11.27-1.44-16.5-1.41-5.23 0.04-11.75 0.61-14.5 1.28zm-285.92 0.17c-0.5 0.43-0.84 1.61-0.75 2.62 0.11 1.2 1.2 2 3.17 2.33 1.65 0.28 4.58 2.08 6.5 4 1.92 1.92 4.26 4.96 5.19 6.75 0.93 1.79 11.46 25.3 23.4 52.25l21.7 49h8.49c40.08-88.74 51.72-114.72 51.72-115 0-0.28-2.14-0.51-4.75-0.52l-4.75-0.02c-29.45 64.42-38.27 82.77-38.59 82.33-0.33-0.43-7.3-15.83-15.5-34.22-8.2-18.38-16.09-35.03-17.54-37-1.44-1.96-4.59-4.88-7-6.47-2.4-1.6-6.17-3.53-8.37-4.3-2.2-0.76-8.05-1.65-13-1.96-4.95-0.32-9.41-0.22-9.92 0.21zm148.41 58.06c-14.57 31.14-26.49 56.9-26.49 57.25 0 0.35 2.03 0.78 4.5 0.96l4.5 0.31 15.5-32.13 47.5 0.02c5.79 12.77 9.17 18.44 11.24 20.84 2.33 2.7 6.24 5.55 10.26 7.48 6 2.89 7.31 3.13 17 3.14l10.5 0.02c0.44-4.79 0.05-5.51-1.25-5.52-0.96-0.01-3.55-1.08-5.75-2.38-2.2-1.29-5.23-4.1-6.74-6.23-1.51-2.13-7.83-15.34-14.06-29.37-6.23-14.03-15.79-35.73-21.26-48.23l-9.94-22.73-9.02-0.04zm22.2-25.46l8.91 19.67c4.9 10.82 9.13 20.46 9.4 21.43 0.47 1.62-0.88 1.75-18.5 1.75-10.45 0-19-0.34-19-0.75 0-0.42 4.32-10.06 9.6-21.43zm224.75 25.26c-14.55 31.03-26.45 56.79-26.45 57.25 0 0.46 2.03 0.98 4.5 1.14l4.5 0.31 15.5-32.11 47.5-0.06c4.33 10.51 7.27 15.81 9.33 18.56 2.11 2.82 6.12 6.41 9.21 8.25 3 1.79 7.71 3.72 10.46 4.29 2.75 0.56 8.38 0.9 12.5 0.74 7.16-0.27 7.52-0.39 7.82-2.78 0.25-2.02-0.23-2.64-2.5-3.21-1.55-0.39-4.28-1.63-6.07-2.75-1.78-1.12-4.76-4.4-6.6-7.29-1.85-2.89-12.54-26.27-23.75-51.97l-20.4-46.71-9.11-0.07zm22.35-25.36l9.35 20.98c5.15 11.53 9.36 21.19 9.36 21.47 0 0.27-8.78 0.5-39 0.5l10.14-21.47zm80.83-28.18c-0.11 2.88 0.13 3.12 3.13 3.12 1.79 0.01 4.79 0.79 6.68 1.75 1.88 0.97 4.36 3.02 5.5 4.58 2.02 2.75 2.08 4.02 2.32 52.75l0.25 49.92 9.5-0.5 1.87-83.81 74.13 84.36 9.5-0.05v-115h-11.07l-0.43 77.21c-47.28-52.37-61.9-68.45-63-69.52-1.1-1.06-4.48-3.1-7.5-4.52-4.78-2.24-7.16-2.63-18.13-2.99l-12.63-0.41zm148.88-1.13c-2 1-4.25 3.24-5.25 5.24-1.28 2.58-1.75 5.95-1.75 12.75v9.25c4.78 0 6.2-0.61 6.5-1.5 0.28-0.82 0.5-2.73 0.5-4.25 0-1.51 0.84-4.32 1.87-6.25 1.14-2.12 3.6-4.39 6.26-5.77 3.68-1.91 5.91-2.26 14.12-2.25l9.75 0.02 0.5 105.5h24l0.5-105.5h37v-9c-86.33 0.01-90.82 0.17-94 1.76zm149.16 1.99c-1.04 2.07-12.87 27.41-26.3 56.32-13.44 28.92-24.52 53.1-24.64 53.75-0.15 0.8 1.27 1.1 4.37 0.93l4.6-0.25 14.7-31 47.61-0.54c6.73 14.28 9.89 19.16 12.63 21.88 2.41 2.38 6.85 5.52 9.87 6.97 4.86 2.33 6.73 2.65 16 2.67 10.46 0.02 10.5 0.01 10.81-2.48 0.27-2.12-0.25-2.67-3.5-3.66-2.36-0.73-5.52-3.04-8.31-6.08-3.9-4.25-7.37-11.41-26-53.6l-21.5-48.7c-8.12 0.04-8.62 0.36-10.34 3.79zm-12.2 47.91c5.2-11.22 9.56-20.35 9.68-20.28 0.12 0.07 4.52 9.69 19.36 42.62h-19.5c-12.05 0-19.4-0.36-19.25-0.96 0.14-0.53 4.51-10.15 9.71-21.38zm-626.21 151.86c-3.16 0.82-8.56 2.9-12 4.63-3.67 1.85-8.73 5.67-12.26 9.25-3.31 3.36-7.22 8.58-8.68 11.6-1.47 3.03-3.38 8.2-4.24 11.5-0.87 3.3-1.58 9.6-1.58 14 0 4.4 0.71 10.7 1.57 14 0.86 3.3 3.23 9.11 5.25 12.91 2.34 4.37 5.98 9.05 9.94 12.75 3.44 3.21 9.4 7.42 13.25 9.34 3.85 1.93 10.04 4.23 13.75 5.11 5.2 1.24 9.75 1.48 19.75 1.06 7.25-0.31 15.66-1.29 19-2.21 3.3-0.91 8.81-2.96 12.25-4.55l6.25-2.91c0.08-26.88 0.51-32.67 1.53-35.5 0.8-2.2 2.24-4.45 3.21-5 0.97-0.55 2.66-1.24 3.76-1.54 1.13-0.31 2-1.39 2-2.5 0-1.77-0.66-1.94-7-1.78-4.16 0.11-9.23 1.01-12.5 2.22-3.02 1.11-6.69 3.28-8.16 4.82-1.46 1.53-3.14 4.58-3.74 6.78-0.6 2.2-1.08 10.3-1.06 18l0.02 14c-7.76 2.44-13.51 3-20.06 3-8.5 0-11.36-0.4-15-2.07-2.47-1.14-6.23-3.62-8.35-5.5-2.12-1.88-5.11-6.13-6.65-9.43-1.53-3.3-3.31-8.47-3.94-11.5-0.63-3.02-1.39-9.55-1.68-14.5-0.34-5.72-0.02-11.91 0.89-17 0.78-4.4 2.53-10.47 3.88-13.5 1.35-3.02 4.34-7.41 6.65-9.75 2.31-2.33 6.11-5.26 8.45-6.5 3.66-1.93 5.77-2.25 15.25-2.25 9.85 0 11.58 0.28 16.5 2.65 3.34 1.61 6.87 4.36 8.99 7 1.93 2.4 4.46 7.05 5.64 10.35 1.8 5.04 2.53 6 4.51 6 2.28 0 2.36-0.25 2.26-7.5-0.08-5.34-0.68-8.64-2.11-11.5-1.25-2.49-3.86-5.19-6.9-7.17-2.69-1.74-7.81-4.17-11.39-5.38-4.99-1.7-9.4-2.3-19-2.56-8.78-0.24-14.21 0.1-18.25 1.13zm264.25 0.1c-3.02 0.82-7.3 2.3-9.5 3.29-2.2 1-6.47 3.7-9.5 6-3.02 2.31-7.4 6.76-9.72 9.9-2.33 3.13-5.42 8.84-6.89 12.69-2.05 5.4-2.76 9.41-3.14 17.5-0.37 7.86-0.07 12.14 1.18 17 0.92 3.58 3.11 9.4 4.87 12.94 1.8 3.62 5.63 8.87 8.75 12 3.51 3.51 8.3 6.91 13 9.22 4.1 2.02 9.81 4.15 12.7 4.75 2.89 0.6 8.74 1.1 13 1.1 4.26 0 10.45-0.69 13.75-1.53 3.3-0.85 8.48-2.75 11.5-4.23 3.03-1.48 8.36-5.41 11.85-8.72 4.42-4.19 7.38-8.15 9.76-13.03 1.88-3.85 4.08-10.15 4.89-14 0.81-3.85 1.47-9.47 1.47-12.5 0-3.02-0.67-8.65-1.48-12.5-0.81-3.85-2.93-9.92-4.71-13.5-1.77-3.57-5.53-8.97-8.35-12-3.04-3.26-7.92-6.99-12.02-9.18-3.8-2.03-9.61-4.39-12.91-5.26-3.35-0.87-9.75-1.53-14.5-1.49-4.67 0.03-10.97 0.74-14 1.55zm4.5 7.92c2.2-0.79 6.48-1.46 9.5-1.49 3.03-0.02 7.19 0.41 9.25 0.96 2.06 0.55 5.83 2.91 8.37 5.24 2.54 2.34 5.69 6.39 7 9 1.31 2.62 3.13 7.57 4.05 11 1.15 4.34 1.67 10.39 1.68 19.75 0.02 9.59-0.47 15.32-1.66 19.75-0.93 3.44-2.77 8.39-4.1 11-1.33 2.62-4.14 6.42-6.25 8.46-2.11 2.03-5.53 4.39-7.59 5.25-2.15 0.88-6.64 1.54-10.5 1.52-4.31-0.01-8.19-0.67-10.75-1.82-2.2-0.99-5.7-3.57-7.79-5.73-2.08-2.16-4.67-5.84-5.75-8.18-1.08-2.33-2.71-7.06-3.63-10.5-1.16-4.36-1.66-10.31-1.66-19.75 0-9.43 0.5-15.38 1.66-19.75 0.92-3.43 2.76-8.38 4.08-11 1.33-2.61 4.14-6.43 6.25-8.5 2.11-2.07 5.64-4.41 7.84-5.21zm-169.5-3.54c0 2.82 0.26 3.02 4.15 3.25 3.23 0.2 4.62 0.88 6.25 3.08 2.05 2.75 2.11 3.87 2.35 47.75l0.25 44.92h22v-46c5.22-0.04 6.53 1.58 15.5 15.71 5.5 8.66 12.25 18.16 15 21.11 2.91 3.12 7.31 6.47 10.5 7.99 4.18 2 7.06 2.63 12 2.63 3.58 0.01 7.74-0.31 9.25-0.71q2.76-0.72 2.75-2.73c0-1.45-1.5-2.68-5.5-4.5-3.5-1.59-6.86-4.15-9.25-7.03-2.06-2.5-7.89-11.16-12.95-19.25l-9.21-14.72c9.62-3.48 14.15-5.73 16.28-7.24 2.13-1.52 5.06-4.78 6.5-7.26 2.17-3.71 2.63-5.71 2.6-11.5-0.02-5.14-0.59-8.05-2.14-11-1.16-2.2-3.4-5.3-4.97-6.89-1.57-1.6-5.11-3.95-7.86-5.23-2.75-1.29-8.15-3.01-12-3.84-5.24-1.12-13.84-1.5-34.25-1.52l-27.25-0.02zm36.51 4.69c1.09-0.25 4.02-0.5 6.49-0.56 2.48-0.06 6.19 0.33 8.25 0.88 2.06 0.55 5.57 2.68 7.8 4.74 2.23 2.07 4.54 5.33 5.13 7.25 0.59 1.93 0.91 6.5 0.7 10.16-0.32 5.6-0.86 7.26-3.44 10.5-1.69 2.11-4.84 4.7-7 5.75-2.25 1.08-7.27 2.16-19.45 3.09l-0.24-20.67c-0.22-19.93-0.16-20.7 1.76-21.14zm226.67-4.94c0.27 2.28 0.91 2.84 3.72 3.25 2.19 0.33 4.14 1.51 5.5 3.33 1.99 2.68 2.13 4.35 2.65 33 0.5 27.97 0.71 30.61 2.77 36.17 1.23 3.3 3.45 7.77 4.95 9.92 1.5 2.16 4.76 5.42 7.23 7.25 2.48 1.83 7.2 4.18 10.5 5.22 3.3 1.05 9.12 2.21 12.94 2.6 3.98 0.4 10.17 0.21 14.5-0.44 4.16-0.62 10.22-2.34 13.47-3.83 3.85-1.77 7.45-4.46 10.31-7.72 2.43-2.75 5.28-7.36 6.34-10.25 1.07-2.88 2.39-8.06 2.93-11.5 0.55-3.43 1-20.53 1-38l0.01-31.75h-9.46c-0.16 65.94-0.43 72.28-1.8 76.5-0.9 2.75-3.01 6.92-4.69 9.25-2.08 2.9-4.88 5.12-8.8 6.98-4.84 2.28-7.1 2.72-14.25 2.74-7.26 0.01-9.13-0.34-12.81-2.47-2.37-1.37-5.39-4.07-6.71-6-1.32-1.92-3.17-5.52-4.12-8-1.44-3.77-1.82-9.68-2.33-36.5-0.52-27.15-0.87-32.56-2.32-35.75-1.15-2.52-2.85-4.24-5.21-5.25-2.44-1.04-7.01-1.5-15.07-1.5h-11.58zm134 0c0.25 2.09 0.93 2.82 2.83 3.03 1.37 0.16 3.51 0.5 4.75 0.75 1.38 0.29 2.82 1.82 3.75 3.97 1.26 2.94 1.5 10.62 1.5 47.5v44h22v-41c24.28-0.58 28.79-1.12 33-2.63 3.02-1.08 7.52-3.39 10-5.12 2.76-1.93 5.62-5.19 7.41-8.44 1.98-3.61 3.06-7.22 3.38-11.31 0.3-3.81-0.11-8-1.11-11.5-0.97-3.35-3.06-7.19-5.38-9.84-2.21-2.53-6.11-5.41-9.3-6.88-3.03-1.39-8.43-3.14-12-3.88-4.55-0.95-14.72-1.37-33.83-1.38l-27.32-0.02zm37.07 4.83c1.24-0.23 5.18-0.32 8.75-0.21 4.98 0.16 7.44 0.8 10.5 2.73 2.41 1.52 4.91 4.29 6.27 6.96 1.85 3.64 2.26 6.07 2.26 13.44 0 7.38-0.41 9.81-2.26 13.44-1.31 2.58-3.92 5.52-6.2 7-3.36 2.19-5.23 2.6-21.57 3.06v-46zm-259.25-1009.24c-1.92 1.28-5.15 4.55-7.17 7.25-2.02 2.71-4.8 7.39-6.18 10.42-1.38 3.02-3.03 8.42-3.67 12-0.64 3.57-0.9 8.97-0.57 12 0.32 3.02 1.42 7.97 2.44 11 1.01 3.02 3.11 7.52 4.66 10 1.55 2.47 4.54 6.52 6.64 9 2.09 2.47 4.72 6.86 5.83 9.75 1.11 2.88 2.02 7.5 2.02 10.25 0 2.75-0.91 7.36-2.03 10.25-1.11 2.88-3.07 6.6-4.35 8.25-1.28 1.65-3.6 5.47-5.15 8.5-2.24 4.36-2.92 7.26-3.3 14-0.45 7.98-0.28 8.93 2.76 15.5 1.79 3.88 4.98 8.67 7.15 10.75 3.13 2.99 4.69 3.74 7.67 3.72 3.09-0.02 4.46-0.77 7.78-4.25 2.21-2.32 5.01-6.25 6.22-8.72 1.22-2.48 2.68-6.98 3.25-10 0.71-3.82 0.71-7.19-0.02-11-0.58-3.03-1.92-7.3-2.98-9.5-1.06-2.2-3.75-6.93-5.99-10.5-2.24-3.58-4.56-8.3-5.14-10.5-0.59-2.2-0.9-6.25-0.68-9 0.22-2.75 1.39-6.92 2.61-9.25 1.21-2.34 4.53-7.29 7.36-11 2.84-3.72 5.97-8.55 6.95-10.75 0.98-2.2 2.53-7.15 3.44-11 1.09-4.6 1.48-9.23 1.14-13.5-0.29-3.58-1.44-8.98-2.55-12-1.12-3.03-3.97-8.41-6.33-11.95-2.37-3.55-6.11-7.72-8.31-9.28-2.28-1.62-5.28-2.82-7-2.81-1.65 0.02-4.57 1.08-6.5 2.37zm-135.65 55.68c-1.18 0.48-2.85 1.92-3.72 3.18-0.86 1.27-1.84 4.33-2.18 6.81-0.33 2.47-0.12 7.42 0.47 11 0.6 3.57 2.44 9.31 4.09 12.75 1.65 3.43 4.96 8.38 7.36 11 2.41 2.62 7.44 6.38 11.25 8.4 3.78 2.01 9.36 4.38 12.38 5.28 3.03 0.89 9.5 1.94 14.38 2.34l8.88 0.73 17.53 18.75c1.48 11.04 2.63 16.5 3.51 19.25 0.98 3.05 3.47 7.08 6.4 10.34 2.8 3.11 6.9 6.32 9.8 7.67 2.75 1.29 7.7 2.78 11 3.32 3.3 0.54 7.31 0.68 8.91 0.32 1.6-0.36 3.78-1.78 4.86-3.15 1.65-2.11 1.87-3.51 1.38-9-0.32-3.58-1.02-8.08-1.56-10-0.54-1.93-2.47-5.75-4.28-8.5-2.7-4.08-4.69-5.69-10.81-8.74-4.73-2.36-10.81-4.36-16.5-5.44l-9-1.7-17.34-17.12c-0.79-11.63-1.76-17.93-2.67-21.5-0.91-3.58-3.31-9.62-5.32-13.42-2.02-3.81-5.35-8.64-7.42-10.75-2.06-2.11-5.55-4.96-7.75-6.33-2.2-1.38-6.7-3.4-10-4.5-4.04-1.35-8.52-1.98-13.75-1.94-4.26 0.04-8.71 0.46-9.9 0.95zm261.65 0.83c-3.02 0.95-7.52 2.9-10 4.32-2.47 1.43-6.52 4.61-9 7.08-2.47 2.48-5.93 7.37-7.69 10.88-1.76 3.51-3.88 9.3-4.7 12.88-0.83 3.57-1.78 9.87-2.12 14l-0.63 7.5-17.36 17.25c-13.95 2.51-20.7 4.52-24 6.07-3.3 1.56-7.54 4.37-9.42 6.26-1.88 1.88-4.45 5.67-5.72 8.42-1.27 2.75-2.62 7.7-3 11-0.49 4.27-0.28 6.97 0.73 9.38 0.78 1.86 2.31 3.84 3.41 4.4 1.1 0.56 4.48 0.98 7.5 0.94 3.08-0.05 8.15-1.08 11.5-2.34 3.3-1.25 7.75-3.86 9.88-5.82 2.12-1.96 4.92-5.36 6.21-7.56 1.29-2.2 3.26-7.6 4.39-12 1.13-4.4 2.04-9.69 2.04-11.75-0.01-3.46 0.71-4.42 9.23-12.25 9.16-8.41 9.31-8.5 14.5-8.5 2.89 0 8.74-0.68 13-1.51 4.27-0.83 10.57-2.86 14-4.5 3.44-1.65 8.77-5.36 11.84-8.24 3.7-3.49 6.73-7.61 9-12.25 1.88-3.85 3.87-9.48 4.43-12.5 0.55-3.03 1-7.19 1-9.25-0.01-2.07-0.69-5.33-1.52-7.25-0.84-1.98-2.8-4.15-4.5-5-1.88-0.94-5.7-1.48-10.25-1.45-3.98 0.03-9.72 0.84-12.75 1.79zm-179.77 7.41c-1.16 1.23-3.1 4.5-4.31 7.25-1.22 2.75-2.42 7.7-2.68 11-0.3 3.77 0.13 8.32 1.15 12.25 0.89 3.43 2.58 8.16 3.77 10.5 1.19 2.33 4.67 6.86 7.75 10.06 3.08 3.19 7.84 6.91 10.59 8.26 2.75 1.35 6.13 2.44 7.5 2.44 1.38-0.01 3.97-0.92 5.75-2.02 1.79-1.09 3.93-3.34 4.75-4.99 0.83-1.65 1.9-6.04 2.39-9.75 0.52-4 0.5-9.2-0.04-12.75-0.51-3.3-2.26-8.82-3.88-12.25-1.63-3.44-5.1-8.55-7.72-11.37-2.61-2.81-7.33-6.41-10.5-8-3.16-1.58-7.24-2.88-9.08-2.88-2.16 0-4.07 0.79-5.44 2.25zm109.27-0.95c-1.65 0.66-4.35 1.94-6 2.84-1.65 0.91-5.36 4.17-8.25 7.25-2.88 3.08-6.48 8.19-8 11.36-2.5 5.24-2.75 6.76-2.75 17.25 0 10.91 0.16 11.77 3 16.88 1.8 3.22 4.01 5.74 5.5 6.29 1.38 0.51 3.85 0.63 5.5 0.27 1.65-0.36 5.19-1.85 7.87-3.3 2.67-1.45 7.06-5.01 9.75-7.89 2.69-2.89 6.23-8.07 7.87-11.5 1.69-3.55 3.26-8.85 3.63-12.25 0.44-4.03 0.13-8.46-0.96-13.5-0.89-4.13-2.65-9.08-3.92-11-1.93-2.94-2.94-3.53-6.27-3.7-2.18-0.11-5.32 0.34-6.97 1zm-174.5 73.08c-3.02 0.66-6.62 1.81-8 2.54-1.37 0.73-3.52 2.28-4.77 3.45-1.53 1.43-2.28 3.27-2.27 5.63 0 1.92 1.33 6.2 2.95 9.5 1.69 3.43 5.11 8.03 8.02 10.75 2.79 2.61 7.44 5.86 10.32 7.22 2.89 1.35 7.62 2.93 10.5 3.5 3.31 0.64 8.31 0.71 13.5 0.18 4.54-0.47 9.72-1.59 11.5-2.5 1.79-0.91 4.04-2.87 5-4.36 0.97-1.49 1.75-4.58 1.75-6.87 0-3.23-0.89-5.46-4-9.94-2.2-3.17-6.02-7.46-8.5-9.54-2.47-2.08-6.97-4.92-10-6.31-3.02-1.39-8.42-3-12-3.57-3.57-0.58-6.95-1.01-7.5-0.97-0.55 0.04-3.47 0.62-6.5 1.29zm236-0.26c-3.02 0.49-8.2 2.2-11.5 3.8-3.46 1.68-8.45 5.38-11.8 8.74-3.2 3.21-6.95 8.09-8.34 10.84-1.85 3.64-2.36 5.81-1.88 8 0.36 1.65 1.3 4.01 2.09 5.25 0.79 1.23 2.78 2.92 4.43 3.75 1.65 0.82 6.72 1.93 11.25 2.47 6.49 0.77 9.75 0.65 15.25-0.53 3.85-0.83 9.2-2.73 11.87-4.22 2.68-1.5 6.77-4.75 9.09-7.22 2.32-2.48 5.35-6.75 6.74-9.5 1.38-2.75 2.81-6.24 3.16-7.75 0.36-1.54 0.09-3.86-0.61-5.27-0.68-1.38-3.27-3.6-5.75-4.91-2.47-1.32-7.2-2.89-10.5-3.49-3.3-0.6-6.45-1.04-7-0.97-0.55 0.07-3.47 0.52-6.5 1.01zm-284.5 43.33c-3.3 0.71-8.47 2.52-11.5 4.03-3.02 1.51-7.93 4.6-10.91 6.88-3.57 2.72-6.05 5.59-7.25 8.39-1.62 3.74-1.67 4.64-0.48 7.5 0.75 1.78 3.67 5.38 6.5 8 2.83 2.61 8.63 6.41 12.89 8.43 6.69 3.19 8.99 3.75 16.75 4.15 7.23 0.37 10.39 0.05 16-1.64 3.85-1.16 9.25-3.54 12-5.29 2.75-1.76 7.03-4.87 9.5-6.93 2.48-2.06 6.08-4.53 8-5.48 1.93-0.96 5.75-1.98 8.5-2.27 2.89-0.31 7.12 0.05 10 0.84 2.75 0.76 8.6 3.78 13 6.71 4.4 2.94 10.25 5.99 13 6.79 2.75 0.8 6.8 1.46 9 1.47 2.2 0 6.93-0.88 10.5-1.98 3.58-1.09 8.64-3.35 11.25-5.02 2.62-1.67 5.43-4.38 6.25-6.03 0.83-1.65 1.5-4.35 1.5-6 0-1.88-1.07-4.22-2.85-6.25-1.58-1.79-6.19-4.79-10.25-6.67-5.19-2.4-9.33-3.56-13.9-3.89-4.38-0.32-8.13 0.05-11.5 1.13-2.75 0.89-8.48 3.87-12.75 6.64-4.78 3.11-10.14 5.64-14 6.62-4.07 1.03-7.64 1.33-10.25 0.86-2.2-0.4-5.35-1.3-7-1.99-1.65-0.7-5.92-3.62-9.5-6.5-3.57-2.87-9.65-6.73-13.5-8.55-3.85-1.83-9.92-3.79-13.5-4.36-3.57-0.56-7.17-1-8-0.96-0.82 0.04-4.2 0.66-7.5 1.37zm327.25 0.65c-2.06 0.49-6.33 2.22-9.5 3.83-3.16 1.61-8.45 4.98-11.75 7.49-3.3 2.51-8.02 5.51-10.5 6.68-3.07 1.45-6.4 2.1-10.5 2.08-4.9-0.04-7.23-0.69-12.75-3.61-3.71-1.97-9.98-5.26-13.93-7.32-6.68-3.49-7.8-3.75-15.75-3.75-7.42 0.01-9.42 0.41-14.95 3-3.74 1.75-8 4.76-10.25 7.25-2.13 2.33-3.87 5.15-3.87 6.25 0 1.1 0.68 3.35 1.5 5 0.83 1.65 3.64 4.6 6.25 6.55 2.62 1.96 7.68 4.44 11.25 5.52 3.58 1.08 8.08 1.96 10 1.95 1.93-0.01 5.76-0.58 8.53-1.27 2.76-0.69 8.84-3.59 13.5-6.44 4.66-2.86 10.5-5.91 12.97-6.78 2.48-0.86 6.3-1.56 8.5-1.53 2.2 0.02 6.03 0.96 8.5 2.08 2.48 1.13 7.65 4.42 11.5 7.33 3.85 2.9 8.8 6.2 11 7.32 2.2 1.13 6.48 2.78 9.5 3.67 3.03 0.89 8.43 1.61 12 1.61 3.58 0 9.09-0.68 12.25-1.51 3.17-0.83 7.89-2.57 10.5-3.88 2.62-1.31 6.78-4.06 9.25-6.1 2.48-2.04 5.54-5.36 6.81-7.37 1.64-2.59 2.14-4.52 1.74-6.65-0.31-1.65-1.83-4.58-3.38-6.5-1.55-1.93-5.71-5.44-9.24-7.81-3.54-2.37-9.35-5.2-12.93-6.27-4.37-1.32-9.12-1.93-14.5-1.84-4.4 0.06-9.68 0.52-11.75 1.02zm-264.75 47.25c-3.02 0.64-7.52 2.35-10 3.79-2.47 1.43-7.14 5.48-10.38 8.98-3.24 3.51-6.56 7.73-7.39 9.38-0.83 1.65-1.56 4.65-1.62 6.68-0.07 2.27 0.68 4.75 1.96 6.5 1.13 1.55 3.83 3.72 6 4.82 3.26 1.65 5.91 2 15.43 2 10.48 0 11.99-0.24 17-2.71 3.03-1.49 8.18-4.86 11.46-7.5 3.27-2.64 7.32-7.01 9-9.71 2.14-3.47 3.04-6.18 3.04-9.18 0-2.72-0.74-5.28-2.05-7.08-1.14-1.55-4.06-3.84-6.5-5.08-3.59-1.82-6-2.24-12.45-2.17-4.4 0.05-10.47 0.63-13.5 1.28zm200.48 0.43c-2.76 0.94-6.25 2.5-7.75 3.47-1.5 0.96-3.18 2.87-3.73 4.25-0.7 1.77-0.61 3.74 0.31 6.75 0.72 2.33 2.68 6.27 4.35 8.75 1.67 2.47 5.02 6.24 7.44 8.37 2.42 2.13 7.33 5.28 10.9 7 6.07 2.92 7.24 3.13 17.5 3.13 9.33 0 11.69-0.34 15.5-2.21 2.48-1.22 5.29-3.58 6.25-5.25 0.97-1.68 1.74-4.06 1.73-5.29-0.01-1.24-0.83-4.05-1.83-6.25-1-2.2-4.3-6.7-7.34-10-3.04-3.3-7.96-7.32-10.92-8.93-2.96-1.61-7.64-3.51-10.39-4.24-2.75-0.72-7.7-1.3-11-1.29-3.3 0.01-8.26 0.8-11.02 1.74zm-53.98-0.06c-1.1 0.26-3.46 1.56-5.25 2.88-2.14 1.58-3.65 3.84-4.43 6.65-0.93 3.32-0.92 5.23 0.06 8.75 0.68 2.47 2.43 6.52 3.87 9 1.45 2.47 4.69 6.66 7.2 9.3 2.91 3.07 6.36 5.48 9.55 6.67 2.75 1.02 9.28 2.56 14.5 3.42l9.5 1.57 15.38 15.54c0.97 12.4 1.9 18.81 2.69 22.25 0.79 3.43 2.85 9.06 4.59 12.5 1.74 3.43 5.29 8.5 7.89 11.25 2.6 2.75 6.91 6.21 9.59 7.68 2.68 1.48 7.56 3.4 10.86 4.26 3.3 0.86 8.82 1.56 12.25 1.56 3.55 0 7.55-0.65 9.25-1.5 1.7-0.85 3.66-3.02 4.5-5 0.83-1.93 1.5-5.3 1.5-7.5 0-2.2-0.49-6.37-1.1-9.25-0.61-2.89-2.41-8.07-4-11.5-1.73-3.74-5.41-8.91-9.15-12.86-4.54-4.8-8.16-7.51-13.25-9.93-3.85-1.82-9.92-3.83-13.5-4.45-3.57-0.62-7.62-0.86-9-0.53-1.37 0.33-4.3 0.2-6.5-0.28-3.15-0.7-5.69-2.64-12-9.12l-8-8.22c-0.99-12.68-2.02-18.16-2.93-20.36-0.91-2.2-2.73-5.58-4.04-7.5-1.31-1.93-5-5.38-8.2-7.67-3.2-2.3-7.4-4.83-9.33-5.63-1.92-0.8-5.07-1.68-7-1.96-1.92-0.28-4.4-0.29-5.5-0.02zm-77 1.36c-2.75 0.45-6.68 1.52-8.75 2.37-2.06 0.85-5.6 3.23-7.87 5.3-2.27 2.06-5.25 6-6.62 8.75-1.38 2.75-3.35 8.37-4.39 12.5-1.04 4.12-1.88 8.62-1.87 10 0.01 1.84-2.42 4.91-9.24 11.63l-9.26 9.14c-14.72 0.84-22.03 2.02-25.75 3.16-3.71 1.14-9.52 3.98-12.91 6.32-3.91 2.69-7.68 6.45-10.28 10.25-2.27 3.3-5.15 9.15-6.4 13-1.26 3.85-2.55 9.7-2.86 13-0.45 4.7-0.17 6.84 1.31 9.89 1.04 2.13 3.13 4.5 4.64 5.25 1.52 0.74 5.68 1.36 9.25 1.36q6.5 0 14.25-2.6c4.27-1.42 10.21-4.23 13.2-6.25 3.05-2.04 7.38-6.31 9.82-9.65 2.64-3.64 5.29-8.95 6.72-13.5 1.3-4.13 2.7-11.78 3.1-17l0.73-9.5c15.43-16.58 16.6-17.45 20.68-18 2.48-0.33 7.32-1.25 10.75-2.05 3.44-0.8 8.39-2.52 11-3.82 2.62-1.3 6.69-4.56 9.06-7.25 3-3.39 4.91-6.87 6.28-11.38 1.07-3.58 1.95-8.19 1.94-10.25-0.02-2.07-0.7-5.1-1.53-6.75-0.93-1.87-2.53-3.23-4.25-3.6-1.51-0.32-3.42-0.71-4.25-0.87-0.82-0.15-3.75 0.09-6.5 0.55zm33.52 18.67c-2.91 2.99-5.49 6.97-6.95 10.75-1.6 4.14-2.33 8.17-2.37 13-0.04 5.59 0.51 8.2 2.71 13 1.52 3.3 4.04 7.57 5.6 9.5 1.56 1.92 3.74 5.52 4.86 8 1.48 3.31 2.01 6.6 2 12.5 0 4.4-0.58 9.35-1.29 11-0.7 1.65-3.61 5.7-6.45 9-2.85 3.3-6.76 9.15-8.68 13-2.04 4.08-3.98 9.92-4.64 14-0.84 5.19-0.84 8.81-0.01 14 0.64 4.03 2.58 9.96 4.58 14 2.26 4.58 5.38 8.81 9.04 12.25 3.07 2.88 6.6 5.52 7.83 5.86 1.24 0.33 3.49 0.33 5 0 1.52-0.34 5-2.86 7.75-5.61 2.91-2.91 6.49-8.03 8.56-12.25 2.26-4.6 3.97-10 4.69-14.75 0.85-5.7 0.83-9.18-0.09-14.5-0.66-3.85-2.48-9.7-4.04-13-1.56-3.3-4.74-8.25-7.07-11-2.34-2.75-5.55-7.7-7.14-11-2.07-4.28-2.9-7.51-2.9-11.25-0.01-2.89 0.81-7.39 1.8-10 1-2.62 3.52-7.23 5.6-10.25 2.08-3.03 4.45-7.08 5.26-9 0.82-1.93 1.88-5.98 2.36-9 0.56-3.46 0.5-7.54-0.16-11-0.57-3.03-2.24-7.7-3.7-10.38-1.47-2.68-4.35-6.39-6.42-8.25-2.82-2.54-4.65-3.37-7.43-3.37-3.07 0-4.44 0.78-8.3 4.75zm-31.21 33.18c-1.48 0.42-4.07 1.51-5.75 2.42-1.68 0.9-4.92 3.33-7.19 5.4-2.27 2.06-5.36 5.55-6.85 7.75-1.5 2.2-3.76 6.7-5.02 10-1.71 4.47-2.32 8.17-2.37 14.5-0.05 5.58 0.5 10.04 1.58 13 0.91 2.47 3.04 5.73 4.72 7.25 2.12 1.89 4.17 2.75 6.57 2.75 1.93 0 5.19-0.84 7.25-1.87 2.07-1.02 6.45-4.33 9.75-7.35 3.97-3.62 7.08-7.65 9.19-11.88 1.76-3.52 3.66-9.33 4.24-12.9 0.65-4.07 0.71-8.56 0.16-12-0.48-3.03-1.6-7.19-2.48-9.25-0.88-2.07-2.73-4.88-4.11-6.25-1.37-1.38-3.51-2.46-4.75-2.42-1.23 0.05-3.46 0.43-4.94 0.85zm69.83 1.32c-1.25 1.23-3.3 4.95-4.55 8.25-1.93 5.1-2.21 7.41-1.87 15.5 0.33 7.86 0.9 10.53 3.26 15.5 1.74 3.64 5.25 8.36 8.94 12.02 3.35 3.31 8.11 7.02 10.58 8.24 2.48 1.21 5.74 2.21 7.25 2.22 1.52 0.01 4.12-0.77 5.79-1.73 1.67-0.97 3.9-3.55 4.95-5.75 1.04-2.2 2.19-6.7 2.55-10 0.37-3.38 0.14-8.84-0.52-12.5-0.64-3.58-2.6-9.37-4.34-12.88-1.92-3.87-5.25-8.3-8.43-11.25-2.88-2.68-7.61-5.99-10.5-7.36-2.88-1.37-6.5-2.5-8.04-2.5-1.57-0.01-3.79 0.97-5.07 2.24z"/>
</svg>